<svg width="116" height="61" viewBox="0 0 116 61" fill="none" xmlns="http://www.w3.org/2000/svg">
<path fill-rule="evenodd" clip-rule="evenodd" d="M85.2447 61H30.7553C13.7695 61 0 47.3448 0 30.5C0 13.6552 13.7695 0 30.7553 0H85.2447C102.23 0 116 13.6552 116 30.5C116 47.3448 102.23 61 85.2447 61Z" fill="#C45955"/>
<path fill-rule="evenodd" clip-rule="evenodd" d="M80.3938 32.7217C80.3938 36.0865 78.8968 37.7928 75.9433 37.7928C73.0736 37.7928 71.4927 36.065 71.4927 32.9298V22.2426H69.6338V33.008C69.6338 37.0941 71.9829 39.5345 75.9179 39.5345C79.8847 39.5345 82.2528 36.997 82.2528 32.7482V22.2426H80.3938V32.7217Z" fill="white"/>
<path fill-rule="evenodd" clip-rule="evenodd" d="M88.9537 24.0109H92.1738C94.8137 24.0109 96.1533 24.9732 96.1533 26.8712C96.1533 28.7441 94.6067 29.8615 92.0164 29.8615H88.9537V24.0109ZM92.5141 37.5054H88.9537V31.6296H92.0164C95.8689 31.6296 96.6764 33.143 96.6764 34.4118C96.6764 36.4939 95.3152 37.5054 92.5141 37.5054ZM95.6365 30.5791C97.2847 29.7744 98.0376 28.2119 98.0376 26.7931C98.0376 25.0943 97.2834 22.2428 92.2259 22.2428H87.0693V39.2748H92.4875C96.3476 39.2748 98.5621 37.5117 98.5621 34.4382C98.5621 32.5957 97.4929 31.2185 95.6365 30.5791Z" fill="white"/>
<path fill-rule="evenodd" clip-rule="evenodd" d="M85.5123 4.82263H63.8233H62.7872H62.6882L62.6894 29.7823H53.1585V22.1409H51.2996L51.3008 53.9639H30.488C17.3522 53.9639 6.66578 43.35 6.66578 30.3032C6.66578 17.2565 17.3522 6.64249 30.488 6.64249H57.9062V4.82263H30.488C16.3427 4.82263 4.8335 16.2526 4.8335 30.3032C4.8335 44.3526 16.3427 55.7838 30.488 55.7838H51.97H52.0691H53.1585V31.6274H62.6894V39.2676H64.5471V6.64249H85.5123C98.6481 6.64249 109.335 17.2565 109.335 30.3032C109.335 43.35 98.6481 53.9639 85.5123 53.9639H58.1678V55.7838H85.5123C99.6576 55.7838 111.167 44.3526 111.167 30.3032C111.167 16.2526 99.6576 4.82263 85.5123 4.82263Z" fill="white"/>
<path fill-rule="evenodd" clip-rule="evenodd" d="M13.3066 26.4989H17.3382V36.7837H19.0346V26.4989H23.0661V24.8859H13.3066V26.4989Z" fill="white"/>
<path fill-rule="evenodd" clip-rule="evenodd" d="M33.6844 30.0192H27.5006V24.8862H25.8042V36.7828H27.5006V31.5956H33.6844V36.7828H35.3808V24.8862H33.6844V30.0192Z" fill="white"/>
<path fill-rule="evenodd" clip-rule="evenodd" d="M46.2464 26.4805V24.8864H38.7954V36.7829H46.2464V35.1888H40.4918V31.6134H45.2928V30.0382H40.4918V26.4805H46.2464Z" fill="white"/>
</svg>
